# xmcd
#
# Track frame offsets:
#	150
#	16177
#	33538
#	49090
#	65215
#	81491
#	99217
#	118679
#	141678
#	161580
#	176313
#	195819
#	213198
#	234903
#	253767
#	274814
#	289972
#	307779
#
# Disc length: 4339 seconds
#
# Revision: 3
# Processed by: cddbd v1.5.2PL0 Copyright (c) Steve Scherf et al.
# Submitted via: EasyCDDAExtractor 15.2.1.1
#
DISCID=fb10f112
DTITLE=李克勤 - 精選到無朋友Disc I
DYEAR=2014
DGENRE=Pop
TTITLE0=無朋友
TTITLE1=屋企
TTITLE2=北京北角
TTITLE3=紙牌屋
TTITLE4=男人的歌 (左麟右李)
TTITLE5=沉默的眼睛
TTITLE6=活着為求甚麼
TTITLE7=夢到內河
TTITLE8=孔明燈
TTITLE9=天河
TTITLE10=似曾相識 (國) 
TTITLE11=再見穿梭機
TTITLE12=罪人
TTITLE13=寂寞嘍囉
TTITLE14=嫲嫲
TTITLE15=未卜先知 (Mr.合唱)
TTITLE16=唔使驚
TTITLE17=她慈我悲
EXTD=
EXTT0=
EXTT1=
EXTT2=
EXTT3=
EXTT4=
EXTT5=
EXTT6=
EXTT7=
EXTT8=
EXTT9=
EXTT10=
EXTT11=
EXTT12=
EXTT13=
EXTT14=
EXTT15=
EXTT16=
EXTT17=
PLAYORDER=
